<svg width="38" height="36" viewBox="0 0 38 36" fill="none" xmlns="http://www.w3.org/2000/svg">
<path d="M18.85 18.7778C18.7505 18.464 18.5687 18.1905 18.3281 17.9925C18.0875 17.7945 17.7991 17.681 17.5 17.6667H15.5C15.1022 17.6667 14.7206 17.8423 14.4393 18.1548C14.158 18.4674 14 18.8913 14 19.3333C14 19.7754 14.158 20.1993 14.4393 20.5118C14.7206 20.8244 15.1022 21 15.5 21H17.5C17.8978 21 18.2794 21.1756 18.5607 21.4882C18.842 21.8007 19 22.2246 19 22.6667C19 23.1087 18.842 23.5326 18.5607 23.8452C18.2794 24.1577 17.8978 24.3333 17.5 24.3333H15.5C15.2009 24.319 14.9125 24.2055 14.6719 24.0075C14.4313 23.8095 14.2495 23.536 14.15 23.2222M16.5 16V17.6667M16.5 24.3333V26" stroke="black" stroke-width="2" stroke-linecap="round" stroke-linejoin="round"/>
<path d="M5 28.5913L5.00028 13.4948C5.00029 12.8215 5.65219 12.3406 6.29547 12.5393L7.05479 12.7739C10.3947 13.8058 14.0057 13.8058 17.3456 12.7739C20.9966 11.6459 24.9608 11.7539 28.5341 13.0787L29 13.2514L28.9997 29.2066C28.9997 29.4475 28.7596 29.6145 28.5338 29.5308V29.5308C24.9605 28.206 20.9963 28.0981 17.3453 29.2261C14.0054 30.258 10.3944 30.258 7.05448 29.2261L5 28.5913Z" stroke="black" stroke-width="2" stroke-linejoin="round"/>
<path d="M8.00006 13L8.00002 10.4948C8.00001 9.82151 8.65192 9.3406 9.29521 9.53935L10.0545 9.77393C13.3944 10.8058 17.0054 10.8058 20.3453 9.77393C23.9963 8.64593 27.9605 8.7539 31.5338 10.0787L31.9997 10.2514L31.9994 25.7975C31.9994 26.3117 31.6094 26.7421 31.0978 26.7927L29 27" stroke="black" stroke-width="2" stroke-linejoin="round"/>
<path d="M11.0001 10L11 7.4948C11 6.8215 11.6519 6.34059 12.2952 6.53934L13.0545 6.77393C16.3945 7.80583 20.0055 7.80583 23.3455 6.77393C26.9965 5.64593 30.9608 5.7539 34.5341 7.07867L35 7.25141L34.9997 22.7975C34.9997 23.3117 34.6097 23.7421 34.0981 23.7927L32 24" stroke="black" stroke-width="2" stroke-linejoin="round"/>
</svg>
