<svg width="10" height="10" viewBox="0 0 10 10" fill="none" xmlns="http://www.w3.org/2000/svg">
<path d="M9.20898 7.80917L2.13914 0.736867C1.74869 0.346275 1.11552 0.346164 0.72493 0.73662C0.334338 1.12708 0.334227 1.76024 0.724683 2.15083L7.79452 9.22314C8.18497 9.61373 8.81814 9.61384 9.20873 9.22338C9.59932 8.83293 9.59943 8.19976 9.20898 7.80917Z" fill="#4F4F4D"/>
<path d="M7.77817 0.707116L0.707107 7.77818C0.316583 8.16871 0.316582 8.80187 0.707107 9.1924C1.09763 9.58292 1.7308 9.58292 2.12132 9.1924L9.19239 2.12133C9.58291 1.73081 9.58291 1.09764 9.19239 0.707116C8.80186 0.316592 8.1687 0.316591 7.77817 0.707116Z" fill="#4F4F4D"/>
</svg>
