<svg width="23" height="23" viewBox="0 0 23 23" fill="none" xmlns="http://www.w3.org/2000/svg">
<path d="M11.011 15C9.15447 15 7.374 14.2625 6.06125 12.9497C4.74849 11.637 4.01099 9.85652 4.01099 8V0H18.011V8C18.011 9.85652 17.2735 11.637 15.9608 12.9497C14.648 14.2625 12.8675 15 11.011 15V15ZM6.01099 2V8C6.01099 9.32608 6.53778 10.5979 7.47546 11.5355C8.41315 12.4732 9.6849 13 11.011 13C12.3371 13 13.6089 12.4732 14.5465 11.5355C15.4842 10.5979 16.011 9.32608 16.011 8V2H6.01099Z" fill="#4D4D4F"/>
<path d="M12.011 14H10.011V19H12.011V14Z" fill="#4D4D4F"/>
<path d="M16.011 22H14.011V20H8.01099V22H6.01099V18H16.011V22Z" fill="#4D4D4F"/>
<path d="M17.011 21H5.01099V23H17.011V21Z" fill="#4D4D4F"/>
<path d="M13.011 3H5.01099V5H13.011V3Z" fill="#4D4D4F"/>
<path d="M5.011 11C4.34256 11.0459 3.67205 10.948 3.04463 10.7129C2.4172 10.4779 1.84743 10.1111 1.37367 9.63733C0.899901 9.16356 0.533161 8.59378 0.298107 7.96636C0.0630519 7.33894 -0.0348602 6.66844 0.0109972 6V1H3.011V3H2.011V6C1.96472 6.40518 2.01051 6.81559 2.14491 7.20062C2.27931 7.58566 2.49887 7.93539 2.78724 8.22376C3.07561 8.51213 3.42534 8.7317 3.81037 8.8661C4.19541 9.00051 4.60581 9.04627 5.011 9V11Z" fill="#4D4D4F"/>
<path d="M17.011 11V9C17.4162 9.04627 17.8266 9.00051 18.2116 8.8661C18.5966 8.7317 18.9464 8.51213 19.2347 8.22376C19.5231 7.93539 19.7427 7.58566 19.8771 7.20062C20.0115 6.81559 20.0573 6.40518 20.011 6V3H19.011V1H22.011V6C22.0585 6.66883 21.9618 7.34006 21.7273 7.96825C21.4929 8.59643 21.1262 9.16691 20.652 9.64104C20.1779 10.1152 19.6074 10.4819 18.9792 10.7163C18.3511 10.9508 17.6798 11.0475 17.011 11Z" fill="#4D4D4F"/>
<path d="M10.71 11.12L8 8.41L9.41 7L10.71 8.28999L14 5L15.41 6.41L10.71 11.12Z" fill="#4D4D4F"/>
</svg>
