<svg width="20" height="20" viewBox="0 0 20 20" fill="none" xmlns="http://www.w3.org/2000/svg">
<path d="M10.0984 14.285H8.19823C7.44229 14.285 6.7173 13.9847 6.18277 13.4501C5.64824 12.9156 5.34796 12.1906 5.34796 11.4347H7.24814C7.24814 11.6867 7.34822 11.9283 7.5264 12.1065C7.70458 12.2847 7.94625 12.3848 8.19823 12.3848H10.0984C10.3504 12.3848 10.592 12.2847 10.7702 12.1065C10.9484 11.9283 11.0485 11.6867 11.0485 11.4347C11.0485 11.1827 10.9484 10.9411 10.7702 10.7629C10.592 10.5847 10.3504 10.4846 10.0984 10.4846H8.19823C7.44229 10.4846 6.7173 10.1843 6.18277 9.64979C5.64824 9.11526 5.34796 8.39029 5.34796 7.63436C5.34796 6.87842 5.64824 6.15345 6.18277 5.61892C6.7173 5.0844 7.44229 4.78409 8.19823 4.78409H10.0984C10.8543 4.78409 11.5793 5.0844 12.1138 5.61892C12.6484 6.15345 12.9487 6.87842 12.9487 7.63436H11.0485C11.0485 7.38238 10.9484 7.14073 10.7702 6.96255C10.592 6.78438 10.3504 6.68427 10.0984 6.68427H8.19823C7.94625 6.68427 7.70458 6.78438 7.5264 6.96255C7.34822 7.14073 7.24814 7.38238 7.24814 7.63436C7.24814 7.88633 7.34822 8.12798 7.5264 8.30616C7.70458 8.48433 7.94625 8.58444 8.19823 8.58444H10.0984C10.8543 8.58444 11.5793 8.88475 12.1138 9.41928C12.6484 9.95381 12.9487 10.6788 12.9487 11.4347C12.9487 12.1906 12.6484 12.9156 12.1138 13.4501C11.5793 13.9847 10.8543 14.285 10.0984 14.285Z" fill="#4F4F4D"/>
<path d="M10.0983 13.3349H8.19812V15.235H10.0983V13.3349Z" fill="#4F4F4D"/>
<path d="M10.0983 3.83398H8.19812V5.73416H10.0983V3.83398Z" fill="#4F4F4D"/>
<path d="M16.3404 16.3181L15.0008 14.9785C16.2523 13.7733 17.0532 12.1756 17.2699 10.4517C17.4867 8.72775 17.1062 6.98158 16.1919 5.50406C15.2776 4.02654 13.8848 2.90688 12.2453 2.33158C10.6057 1.75628 8.81861 1.76007 7.18156 2.34232L6.57349 0.53716C8.61656 -0.180662 10.8435 -0.179003 12.8855 0.541857C14.9275 1.26272 16.662 2.65952 17.8016 4.50089C18.9413 6.34225 19.4176 8.51769 19.1519 10.6668C18.8862 12.816 17.8942 14.8098 16.3404 16.3181V16.3181Z" fill="#4F4F4D"/>
<path d="M9.57578 19.0354C7.68239 19.0503 5.82776 18.4992 4.2498 17.4527C2.67183 16.4062 1.44255 14.9121 0.719668 13.1621C-0.00321204 11.412 -0.186709 9.48594 0.192723 7.63091C0.572156 5.77587 1.49715 4.07651 2.84913 2.75089L4.1983 4.10001C2.94673 5.30523 2.14588 6.90287 1.92914 8.62682C1.7124 10.3508 2.09281 12.0969 3.0071 13.5745C3.92138 15.052 5.3143 16.1716 6.95382 16.7469C8.59333 17.3222 10.3805 17.3185 12.0175 16.7362L12.6161 18.5414C11.6358 18.8685 10.6092 19.0353 9.57578 19.0354V19.0354Z" fill="#4F4F4D"/>
<path d="M0.0178833 1.91483H4.76833V6.66527L0.0178833 1.91483Z" fill="#4F4F4D"/>
<path d="M19.0196 17.1162H14.2692V12.3658L19.0196 17.1162Z" fill="#4F4F4D"/>
</svg>
