<svg width="23" height="25" viewBox="0 0 23 25" fill="none" xmlns="http://www.w3.org/2000/svg">
<path d="M2.70004 13.6999L1.29004 12.2899L7.99005 5.57993L11.4901 9.07993L20.29 0.289917L21.7 1.69992L11.4901 11.9099L7.99005 8.40991L2.70004 13.6999Z" fill="#4F4F4D"/>
<path d="M21.99 7H19.99V2H14.99V0H21.99V7Z" fill="#4F4F4D"/>
<path d="M13.7099 14.2944L12.2957 15.7086L14.2968 17.7097L15.711 16.2955L13.7099 14.2944Z" fill="#4F4F4D"/>
<path d="M18.9999 24.45L12.58 18.0399L15.9999 14.6299L22.4099 21.0399L18.9999 24.45ZM15.3799 17.9999L18.9699 21.59L19.55 20.9999L15.9999 17.45L15.3799 17.9999Z" fill="#4F4F4D"/>
<path d="M8 17.9999C6.41775 17.9999 4.87104 17.5308 3.55545 16.6517C2.23986 15.7727 1.21448 14.5232 0.608979 13.0614C0.00347757 11.5996 -0.154964 9.99109 0.153717 8.43924C0.462399 6.88739 1.22432 5.46193 2.34314 4.34311C3.46196 3.22429 4.88742 2.46234 6.43927 2.15366C7.99112 1.84497 9.59965 2.00342 11.0615 2.60892C12.5233 3.21442 13.7727 4.2398 14.6518 5.55539C15.5308 6.87098 16 8.41769 16 9.99994C16 12.1217 15.1572 14.1565 13.6569 15.6568C12.1566 17.1571 10.1217 17.9999 8 17.9999ZM8 3.99994C6.81331 3.99994 5.65329 4.35185 4.6666 5.01114C3.6799 5.67043 2.91085 6.6075 2.45673 7.70386C2.0026 8.80021 1.88378 10.0066 2.1153 11.1705C2.34681 12.3344 2.91824 13.4035 3.75736 14.2426C4.59647 15.0817 5.66558 15.6532 6.82947 15.8847C7.99335 16.1162 9.19976 15.9974 10.2961 15.5432C11.3925 15.0891 12.3295 14.3201 12.9888 13.3334C13.6481 12.3467 14 11.1866 14 9.99994C14 8.40864 13.3679 6.88254 12.2426 5.75732C11.1174 4.63211 9.5913 3.99994 8 3.99994V3.99994Z" fill="#4F4F4D"/>
</svg>
