<svg width="24" height="24" viewBox="0 0 24 24" fill="none" xmlns="http://www.w3.org/2000/svg">
<path d="M17.05 18.4651C16.2656 18.8247 15.4129 19.0108 14.55 19.0108C13.6871 19.0108 12.8344 18.8247 12.05 18.4651C11.23 18.1821 10.3583 18.0802 9.49513 18.1665C8.63194 18.2528 7.79772 18.5253 7.05 18.9651C7.58542 18.7798 8.05742 18.4466 8.41137 18.0042C8.76531 17.5618 8.98673 17.0282 9.05 16.4651V8.96512C9.05528 8.08905 9.34803 7.23894 9.88328 6.54538C10.4185 5.85182 11.1667 5.35316 12.0128 5.12602C12.8589 4.89887 13.7562 4.95579 14.5669 5.28804C15.3775 5.62029 16.0567 6.20948 16.5 6.96512M13.95 12.9651H6.95" stroke="black" stroke-width="2" stroke-linecap="round" stroke-linejoin="round"/>
</svg>
